<?xml version="1.0" standalone="no"?>
<!DOCTYPE svg PUBLIC "-//W3C//DTD SVG 20010904//EN"
 "http://www.w3.org/TR/2001/REC-SVG-20010904/DTD/svg10.dtd">
<svg version="1.0" xmlns="http://www.w3.org/2000/svg"
 width="1080.000000pt" height="1080.000000pt" viewBox="0 0 1080.000000 1080.000000"
 preserveAspectRatio="xMidYMid meet">
<metadata>
Created by potrace 1.14, written by Peter Selinger 2001-2017
</metadata>
<g transform="translate(0.000000,1080.000000) scale(0.100000,-0.100000)"
fill="#000000" stroke="none">
<path d="M3259 9586 c-8 -9 -21 -24 -29 -33 -8 -9 -14 -18 -13 -20 1 -1 -6
-23 -17 -49 -11 -25 -20 -49 -20 -54 0 -13 -26 -19 -67 -14 -21 3 -132 20
-247 39 -115 19 -213 35 -217 35 -7 0 -22 -65 -34 -145 -3 -22 -12 -83 -21
-135 -9 -52 -17 -111 -20 -130 -2 -19 -9 -57 -14 -85 -5 -27 -18 -111 -30
-185 -11 -74 -22 -144 -24 -155 -2 -11 -7 -42 -10 -68 -4 -27 -9 -59 -12 -70
-2 -12 -7 -42 -10 -67 -3 -25 -11 -75 -18 -112 -7 -37 -10 -71 -7 -76 3 -5 31
-13 61 -17 74 -10 85 -11 155 -23 33 -6 78 -13 100 -17 22 -3 51 -7 65 -10 14
-3 41 -7 60 -10 19 -2 136 -20 260 -40 124 -20 241 -38 260 -41 38 -6 198 -31
241 -38 26 -5 27 -3 39 72 7 42 14 91 17 107 2 17 8 53 13 80 5 28 12 70 15
95 5 38 14 93 40 251 3 15 7 44 10 65 3 22 7 50 10 64 2 13 7 42 10 65 3 22
10 65 15 95 5 30 11 69 14 85 9 58 18 120 21 136 2 9 6 39 10 66 l6 50 -53 8
c-29 4 -60 9 -68 11 -8 1 -31 5 -50 7 -19 3 -62 10 -95 15 -33 6 -80 14 -105
18 -25 3 -52 8 -60 9 -8 2 -20 4 -27 4 -13 1 -5 41 8 41 5 0 9 7 9 15 0 8 11
34 25 59 14 25 25 49 25 54 0 14 -45 24 -125 28 -55 2 -71 7 -75 20 -6 16 -7
16 -21 0z"/>
<path d="M6959 9046 c-2 -2 -21 -7 -41 -10 -191 -30 -409 -179 -532 -365 l-49
-73 -17 40 c-44 97 -180 262 -217 262 -7 0 -13 4 -13 9 0 12 -107 57 -183 77
-74 20 -242 27 -312 13 -27 -6 -61 -12 -74 -15 -43 -9 -139 -52 -188 -84 -189
-127 -376 -452 -420 -730 -3 -19 -8 -42 -12 -50 -4 -8 -9 -33 -10 -55 -1 -22
-5 -43 -9 -46 -4 -4 -38 -16 -77 -28 -142 -44 -360 -113 -375 -119 -8 -3 -17
-6 -20 -7 -3 -1 -12 -4 -20 -7 -8 -3 -51 -18 -95 -33 -44 -15 -89 -30 -100
-35 -207 -83 -274 -112 -353 -153 -91 -47 -211 -118 -242 -145 -8 -7 -55 -45
-105 -86 -261 -212 -434 -479 -499 -769 -28 -123 -33 -331 -11 -442 49 -246
190 -506 365 -671 l25 -24 -25 0 c-14 0 -119 -1 -233 -3 -194 -2 -210 -3 -223
-22 -10 -13 -12 -33 -9 -60 3 -22 8 -58 11 -80 2 -22 7 -51 9 -65 2 -14 7 -47
10 -74 3 -27 8 -52 10 -55 1 -3 6 -37 10 -76 3 -38 8 -72 10 -75 2 -3 6 -32
10 -64 3 -33 8 -62 9 -65 2 -3 7 -34 10 -69 4 -34 11 -86 16 -114 6 -28 10
-61 10 -74 l0 -24 -822 0 c-535 0 -836 -4 -860 -10 -80 -23 -103 -59 -258
-405 -81 -180 -108 -239 -147 -322 -15 -32 -28 -60 -28 -63 -1 -6 -10 -24 -95
-210 -57 -124 -83 -185 -80 -185 0 0 -16 -34 -36 -75 -20 -41 -71 -149 -112
-240 l-76 -165 -4 -270 c-4 -335 -15 -312 143 -313 61 0 115 -1 120 -1 6 -1
10 -98 10 -270 0 -211 3 -272 14 -285 12 -15 376 -16 4657 -16 4580 0 4643 0
4654 19 6 12 10 122 10 288 l0 268 95 -1 c140 -2 133 -19 131 308 l-1 263 -47
106 c-26 59 -65 144 -86 190 -22 46 -54 118 -72 159 -18 41 -52 117 -76 168
-24 52 -44 95 -44 97 0 2 -17 41 -39 87 -40 88 -104 229 -141 313 -12 28 -39
86 -60 130 -20 44 -61 134 -90 200 -62 138 -95 185 -147 211 -36 18 -78 19
-641 24 l-603 5 -2 265 c-2 146 -6 270 -9 276 -4 6 -9 21 -11 35 -21 110 -84
231 -146 280 l-31 25 77 54 c96 68 265 234 320 315 139 206 216 469 216 740 0
243 -57 476 -173 707 -95 189 -199 327 -366 488 -109 105 -140 129 -257 203
-51 32 -95 61 -99 65 -4 4 -10 57 -13 117 -12 222 -18 269 -52 385 -42 146
-121 267 -228 350 -71 55 -191 115 -272 136 -61 15 -253 30 -264 20z"/>
<path d="M1440 8703 c-58 -21 -130 -58 -130 -67 0 -6 -7 -3 -15 7 -13 18 -14
18 -23 0 -5 -10 -8 -62 -5 -115 3 -83 2 -98 -12 -99 -14 -1 -32 -5 -37 -8 -13
-7 -236 -83 -245 -83 -7 -1 -13 -6 -13 -11 0 -6 -3 -8 -6 -4 -6 5 -22 1 -99
-29 -11 -4 -26 -6 -32 -5 -7 1 -13 -3 -13 -9 0 -5 -3 -9 -7 -9 -22 4 -33 -3
-33 -20 0 -11 5 -23 10 -26 5 -3 10 -15 10 -26 0 -10 5 -19 11 -19 5 0 8 -4 5
-9 -4 -5 -1 -22 5 -38 6 -15 13 -35 15 -43 3 -14 53 -155 54 -155 2 0 113
-327 122 -357 6 -21 15 -38 20 -38 5 0 7 -4 4 -9 -4 -5 -1 -22 5 -38 6 -15 10
-28 10 -28 -1 0 10 -31 24 -70 25 -67 84 -239 90 -260 11 -39 18 -55 25 -55 4
0 106 34 226 76 121 41 226 77 234 79 8 3 40 13 70 24 77 28 611 212 632 218
18 5 19 38 1 65 -4 7 -8 15 -8 18 -2 18 -30 100 -35 100 -3 0 -6 9 -7 20 -1
11 -15 57 -32 103 -16 45 -37 106 -47 135 -9 28 -21 52 -26 52 -5 0 -7 4 -3 9
3 6 -4 36 -16 68 -11 32 -25 74 -31 93 -6 19 -13 40 -16 45 -4 6 -7 12 -7 15
-3 22 -72 216 -78 221 -5 3 -8 10 -8 15 1 13 -27 102 -36 117 -4 6 -8 17 -8
22 -1 21 -29 95 -35 95 -8 0 -67 -18 -95 -30 -24 -9 -113 -40 -125 -42 -3 -1
-54 -19 -114 -40 -60 -21 -112 -35 -115 -33 -3 3 -6 38 -7 78 -1 40 -3 80 -3
90 -1 17 -21 21 -51 10z"/>
</g>
</svg>
